HIERARCHY
ROOT Hips
{
	OFFSET 0.000000 83.214638 0.000000
	CHANNELS 6 Xposition Yposition Zposition Xrotation Yrotation Zrotation
	JOINT Pelvis
	{
		OFFSET 0.000000 0.000000 0.000000
		CHANNELS 3 Xrotation Yrotation Zrotation
		JOINT LeftUpLeg
		{
			OFFSET 8.479700 -4.795502 -0.379100
			CHANNELS 3 Xrotation Yrotation Zrotation
			JOINT LeftLeg
			{
				OFFSET 0.024144 -32.555107 0.112900
				CHANNELS 3 Xrotation Yrotation Zrotation
				JOINT LeftFoot
				{
					OFFSET -0.024144 -32.638630 -3.012600
					CHANNELS 3 Xrotation Yrotation Zrotation
					JOINT LeftToeBase
					{
						OFFSET 0.970200 -13.225400 11.864200
						CHANNELS 3 Xrotation Yrotation Zrotation
						End Site
						{
							OFFSET 0.000000 12.319262 0.000000
						}
					}
					JOINT LFootTongue
					{
						OFFSET 1.142400 -1.059800 6.665200
						CHANNELS 3 Xrotation Yrotation Zrotation
						End Site
						{
							OFFSET 0.000000 12.319262 0.000000
						}
					}
				}
				JOINT LeftPantLeg
				{
					OFFSET 0.918482 -16.533964 -2.284700
					CHANNELS 3 Xrotation Yrotation Zrotation
					End Site
					{
						OFFSET 0.350399 24.744368 0.000000
					}
				}
			}
		}
		JOINT RightUpLeg
		{
			OFFSET -8.479700 -4.795502 -0.379100
			CHANNELS 3 Xrotation Yrotation Zrotation
			JOINT RightLeg
			{
				OFFSET -0.023144 -32.555092 0.112900
				CHANNELS 3 Xrotation Yrotation Zrotation
				JOINT RightFoot
				{
					OFFSET 0.023144 -32.638641 -3.012700
					CHANNELS 3 Xrotation Yrotation Zrotation
					JOINT RightToeBase
					{
						OFFSET -0.970200 -13.225400 11.864200
						CHANNELS 3 Xrotation Yrotation Zrotation
						End Site
						{
							OFFSET 0.000000 12.319244 0.000000
						}
					}
					JOINT RFootTongue
					{
						OFFSET -1.142200 -1.059800 6.665200
						CHANNELS 3 Xrotation Yrotation Zrotation
						End Site
						{
							OFFSET 0.000000 12.319243 0.000000
						}
					}
				}
				JOINT RightPantLeg
				{
					OFFSET -0.919482 -16.533978 -2.284800
					CHANNELS 3 Xrotation Yrotation Zrotation
					End Site
					{
						OFFSET -0.350400 24.744419 0.000000
					}
				}
			}
		}
	}
	JOINT Spine
	{
		OFFSET 0.000000 7.722000 1.166200
		CHANNELS 3 Xrotation Yrotation Zrotation
		JOINT Spine1
		{
			OFFSET 0.000000 12.024101 0.248800
			CHANNELS 3 Xrotation Yrotation Zrotation
			JOINT Spine2
			{
				OFFSET 0.000000 11.502998 -0.491200
				CHANNELS 3 Xrotation Yrotation Zrotation
				JOINT Neck
				{
					OFFSET 0.000000 18.430702 -3.123100
					CHANNELS 3 Xrotation Yrotation Zrotation
					JOINT Head
					{
						OFFSET 0.000000 9.051102 1.034000
						CHANNELS 3 Xrotation Yrotation Zrotation
						JOINT HairB
						{
							OFFSET 0.208400 24.786102 24.822300
							CHANNELS 3 Xrotation Yrotation Zrotation
							End Site
							{
								OFFSET 0.000000 32.263779 0.000000
							}
						}
						JOINT HairA
						{
							OFFSET -7.081100 24.428299 23.196600
							CHANNELS 3 Xrotation Yrotation Zrotation
							End Site
							{
								OFFSET 0.000000 32.263779 0.000000
							}
						}
						JOINT Hat
						{
							OFFSET 16.728800 15.048294 -15.439601
							CHANNELS 3 Xrotation Yrotation Zrotation
							End Site
							{
								OFFSET 0.000000 32.263779 0.000000
							}
						}
					}
				}
				JOINT LeftShoulder
				{
					OFFSET 6.197800 13.665199 -4.064700
					CHANNELS 3 Xrotation Yrotation Zrotation
					JOINT LeftArm
					{
						OFFSET 7.778100 -0.187103 -1.709300
						CHANNELS 3 Xrotation Yrotation Zrotation
						JOINT LeftForeArm
						{
							OFFSET 22.049376 0.000000 0.000000
							CHANNELS 3 Xrotation Yrotation Zrotation
							JOINT LeftHand
							{
								OFFSET 23.009392 0.000000 0.000000
								CHANNELS 3 Xrotation Yrotation Zrotation
								JOINT LeftHandThumb1
								{
									OFFSET 3.507191 -2.063065 3.133727
									CHANNELS 3 Xrotation Yrotation Zrotation
									JOINT LeftHandThumb2
									{
										OFFSET 3.101337 -1.790558 1.790558
										CHANNELS 3 Xrotation Yrotation Zrotation
										JOINT LeftHandThumb3
										{
											OFFSET 3.058640 -1.765907 1.765906
											CHANNELS 3 Xrotation Yrotation Zrotation
											End Site
											{
												OFFSET -0.415260 3.926476 -0.049563
											}
										}
									}
								}
								JOINT LeftHandIndex1
								{
									OFFSET 11.334419 -0.901459 3.706815
									CHANNELS 3 Xrotation Yrotation Zrotation
									JOINT LeftHandIndex2
									{
										OFFSET 3.283112 0.000000 0.000000
										CHANNELS 3 Xrotation Yrotation Zrotation
										JOINT LeftHandIndex3
										{
											OFFSET 3.323853 0.000000 0.000000
											CHANNELS 3 Xrotation Yrotation Zrotation
											End Site
											{
												OFFSET -1.135597 3.097809 0.402452
											}
										}
									}
								}
								JOINT LeftHandMiddle1
								{
									OFFSET 11.335861 0.000000 0.000000
									CHANNELS 3 Xrotation Yrotation Zrotation
									JOINT LeftHandMiddle2
									{
										OFFSET 3.410492 0.000000 0.000000
										CHANNELS 3 Xrotation Yrotation Zrotation
										JOINT LeftHandMiddle3
										{
											OFFSET 3.312172 0.000000 0.000000
											CHANNELS 3 Xrotation Yrotation Zrotation
											End Site
											{
												OFFSET -1.150200 3.080154 0.400270
											}
										}
									}
								}
								JOINT LeftHandRing1
								{
									OFFSET 11.514786 -0.013176 -3.003090
									CHANNELS 3 Xrotation Yrotation Zrotation
									JOINT LeftHandRing2
									{
										OFFSET 3.053307 0.000000 0.000000
										CHANNELS 3 Xrotation Yrotation Zrotation
										JOINT LeftHandRing3
										{
											OFFSET 3.295807 0.000000 0.000000
											CHANNELS 3 Xrotation Yrotation Zrotation
											End Site
											{
												OFFSET -1.281006 3.013344 0.375733
											}
										}
									}
								}
								JOINT LeftHandPinky1
								{
									OFFSET 10.518692 -0.960396 -5.730441
									CHANNELS 3 Xrotation Yrotation Zrotation
									JOINT LeftHandPinky2
									{
										OFFSET 2.861649 0.000000 0.000000
										CHANNELS 3 Xrotation Yrotation Zrotation
										JOINT LeftHandPinky3
										{
											OFFSET 2.863380 0.000000 0.000000
											CHANNELS 3 Xrotation Yrotation Zrotation
											End Site
											{
												OFFSET -0.843597 2.711159 0.369971
											}
										}
									}
								}
							}
							JOINT LSleeve
							{
								OFFSET 6.676277 -0.344902 -1.011730
								CHANNELS 3 Xrotation Yrotation Zrotation
								End Site
								{
									OFFSET 0.000000 14.885353 0.000000
								}
							}
						}
					}
				}
				JOINT RightShoulder
				{
					OFFSET -6.197800 13.665199 -4.064700
					CHANNELS 3 Xrotation Yrotation Zrotation
					JOINT RightArm
					{
						OFFSET -7.778100 -0.187103 -1.709300
						CHANNELS 3 Xrotation Yrotation Zrotation
						JOINT RightForeArm
						{
							OFFSET -22.049376 0.000000 0.000000
							CHANNELS 3 Xrotation Yrotation Zrotation
							JOINT RightHand
							{
								OFFSET -23.009392 0.000000 0.000000
								CHANNELS 3 Xrotation Yrotation Zrotation
								JOINT RightHandThumb1
								{
									OFFSET -3.507191 -2.063065 3.133727
									CHANNELS 3 Xrotation Yrotation Zrotation
									JOINT RightHandThumb2
									{
										OFFSET -3.101337 -1.790558 1.790558
										CHANNELS 3 Xrotation Yrotation Zrotation
										JOINT RightHandThumb3
										{
											OFFSET -3.058640 -1.765907 1.765906
											CHANNELS 3 Xrotation Yrotation Zrotation
											End Site
											{
												OFFSET 0.415260 3.926476 -0.049563
											}
										}
									}
								}
								JOINT RightHandIndex1
								{
									OFFSET -11.334419 -0.901459 3.706815
									CHANNELS 3 Xrotation Yrotation Zrotation
									JOINT RightHandIndex2
									{
										OFFSET -3.283112 0.000000 0.000000
										CHANNELS 3 Xrotation Yrotation Zrotation
										JOINT RightHandIndex3
										{
											OFFSET -3.323853 0.000000 0.000000
											CHANNELS 3 Xrotation Yrotation Zrotation
											End Site
											{
												OFFSET 1.135597 3.097809 0.402452
											}
										}
									}
								}
								JOINT RightHandMiddle1
								{
									OFFSET -11.335861 0.000000 0.000000
									CHANNELS 3 Xrotation Yrotation Zrotation
									JOINT RightHandMiddle2
									{
										OFFSET -3.410492 0.000000 0.000000
										CHANNELS 3 Xrotation Yrotation Zrotation
										JOINT RightHandMiddle3
										{
											OFFSET -3.312172 0.000000 0.000000
											CHANNELS 3 Xrotation Yrotation Zrotation
											End Site
											{
												OFFSET 1.150200 3.080154 0.400270
											}
										}
									}
								}
								JOINT RightHandRing1
								{
									OFFSET -11.514786 -0.013176 -3.003090
									CHANNELS 3 Xrotation Yrotation Zrotation
									JOINT RightHandRing2
									{
										OFFSET -3.053307 0.000000 0.000000
										CHANNELS 3 Xrotation Yrotation Zrotation
										JOINT RightHandRing3
										{
											OFFSET -3.295807 0.000000 0.000000
											CHANNELS 3 Xrotation Yrotation Zrotation
											End Site
											{
												OFFSET 1.281006 3.013344 0.375733
											}
										}
									}
								}
								JOINT RightHandPinky1
								{
									OFFSET -10.518692 -0.960396 -5.730441
									CHANNELS 3 Xrotation Yrotation Zrotation
									JOINT RightHandPinky2
									{
										OFFSET -2.861649 0.000000 0.000000
										CHANNELS 3 Xrotation Yrotation Zrotation
										JOINT RightHandPinky3
										{
											OFFSET -2.863380 0.000000 0.000000
											CHANNELS 3 Xrotation Yrotation Zrotation
											End Site
											{
												OFFSET 0.843597 2.711159 0.369971
											}
										}
									}
								}
							}
							JOINT RSleeve
							{
								OFFSET -6.676277 -0.344902 -1.011730
								CHANNELS 3 Xrotation Yrotation Zrotation
								End Site
								{
									OFFSET 0.000000 14.885353 0.000000
								}
							}
						}
					}
				}
				JOINT Backpack
				{
					OFFSET 0.000000 -2.471497 36.677502
					CHANNELS 3 Xrotation Yrotation Zrotation
					End Site
					{
						OFFSET 0.000000 20.427315 0.000000
					}
				}
				JOINT Hood
				{
					OFFSET 0.000000 18.754097 -10.431000
					CHANNELS 3 Xrotation Yrotation Zrotation
					JOINT Hood1
					{
						OFFSET 0.000000 -5.011002 -7.685901
						CHANNELS 3 Xrotation Yrotation Zrotation
						End Site
						{
							OFFSET 0.000000 9.175140 0.000000
						}
					}
				}
				JOINT LHoodieString
				{
					OFFSET 5.250500 16.397697 3.089900
					CHANNELS 3 Xrotation Yrotation Zrotation
					JOINT LHoodieString1
					{
						OFFSET 0.257700 -6.364304 3.694600
						CHANNELS 3 Xrotation Yrotation Zrotation
						JOINT LHoodieString2
						{
							OFFSET 0.000000 -9.643799 2.679100
							CHANNELS 3 Xrotation Yrotation Zrotation
							End Site
							{
								OFFSET 0.000000 10.009018 0.000000
							}
						}
					}
				}
				JOINT RHoodieString
				{
					OFFSET -5.250500 16.397697 3.089900
					CHANNELS 3 Xrotation Yrotation Zrotation
					JOINT RHoodieString1
					{
						OFFSET -0.257700 -6.364304 3.694600
						CHANNELS 3 Xrotation Yrotation Zrotation
						JOINT RHoodieString2
						{
							OFFSET 0.000000 -9.643799 2.679100
							CHANNELS 3 Xrotation Yrotation Zrotation
							End Site
							{
								OFFSET 0.000000 10.009018 0.000000
							}
						}
					}
				}
			}
			JOINT LBackpack_Strap
			{
				OFFSET 15.223200 -7.719803 -6.610900
				CHANNELS 3 Xrotation Yrotation Zrotation
				End Site
				{
					OFFSET 0.000000 16.040596 0.000000
				}
			}
			JOINT RBackpack_Strap
			{
				OFFSET -15.223000 -7.719803 -6.610900
				CHANNELS 3 Xrotation Yrotation Zrotation
				End Site
				{
					OFFSET 0.000000 16.040596 0.000000
				}
			}
		}
	}
	JOINT BoyFacialAnim_Joint
	{
		OFFSET 1.000000 -82.208099 -1.550900
		CHANNELS 3 Xrotation Yrotation Zrotation
		End Site
		{
			OFFSET 0.000000 30.012791 0.000000
		}
	}
}
MOTION
Frames: 4
Frame Time: 0.016667
0.829077 74.989334 -0.424583 9.545422 -61.619521 10.152509 0.000000 -0.000003 -0.000000 -36.690478 11.885595 23.485324 36.110452 -6.737334 1.196283 -5.488373 -2.273675 -16.040674 0.000000 0.000005 -0.000000 0.000000 0.000005 -0.000000 0.000001 0.000001 0.000001 -31.264508 -19.562804 -32.364653 35.167954 3.481087 -4.079287 -11.012165 0.860780 22.482380 -0.000000 0.000000 -0.000000 -0.000000 0.000000 -0.000000 0.000001 -0.000000 -0.000000 15.067143 -0.322327 -4.285405 5.872802 0.571270 -2.801492 5.868638 0.648865 -2.855440 -3.636315 1.441457 3.747640 -20.003648 54.833124 2.408457 -0.000000 -0.000000 0.000000 -0.000000 -0.000000 0.000000 -0.000000 -0.000000 0.000000 1.829306 -3.192751 -12.271663 -39.386706 26.350103 -34.912007 0.430066 -46.810152 0.421469 -10.315200 -0.130091 0.363155 40.109917 -15.297153 -0.360487 5.639930 28.097791 11.338768 0.000000 -0.000000 0.000001 6.882277 2.840048 -61.140479 8.248003 7.640058 -89.897878 0.000001 0.000000 -0.000005 -2.345526 4.688892 -62.655224 8.754174 9.897070 -87.051246 0.000001 0.000002 -0.000001 -9.042487 10.045646 -60.766185 8.523965 9.508883 -66.892940 -0.000000 0.000002 -0.000002 -17.946850 14.755029 -51.485908 8.868410 8.667055 -84.812064 0.000001 0.000004 -0.000001 -0.000001 0.000003 -0.000004 0.631512 7.257356 8.703784 7.936909 -9.680979 53.430780 -22.866913 36.192158 17.964139 -27.375381 10.434878 -17.812425 -2.346134 -6.100506 10.731424 2.364050 -23.806247 -8.771114 0.000000 0.000001 0.000003 -0.054772 0.532087 0.738707 0.019720 -0.087376 5.078572 -0.000004 0.000002 -0.000001 0.348255 -5.918485 2.583778 1.432610 -4.204233 24.052100 0.000000 0.000002 -0.000002 1.205845 -11.756060 4.154748 1.794817 -3.771853 26.865443 -0.000001 0.000002 0.000002 2.126229 -19.166838 11.319896 3.354819 -2.122203 18.828567 0.000001 -0.000000 0.000000 -0.000000 0.000000 -0.000001 -0.000001 0.000001 0.000001 -0.000001 0.000001 0.000001 -0.000001 0.000001 0.000001 -0.000001 0.000001 0.000001 -0.000001 0.000001 0.000001 0.000001 0.000003 -0.000000 -0.000001 0.000001 0.000001 -0.000001 0.000001 0.000001 0.000001 0.000003 -0.000000 0.000003 -0.000000 -0.000002 0.000003 -0.000000 -0.000002 0.000000 -0.000003 -0.000000 
0.846566 74.995300 -0.427834 8.510314 -61.906191 8.959619 -0.000000 -0.000001 -0.000000 -36.310037 11.879605 23.914955 36.301448 -6.171983 1.241064 -5.631330 -2.887070 -16.163074 0.000000 0.000000 -0.000000 0.000000 0.000000 0.000000 -0.000000 0.000004 0.000000 -30.825176 -19.998420 -32.220311 35.120611 5.223488 -3.935386 -10.938660 -0.303192 21.939423 -0.000000 -0.000000 0.000000 -0.000000 -0.000000 0.000000 0.000000 -0.000000 0.000001 14.988589 -0.317721 -4.267668 5.836663 0.551934 -2.747398 5.832889 0.628931 -2.797344 -3.515837 1.561331 3.707977 -19.681540 55.042223 2.670138 -0.000000 0.000000 -0.000001 -0.000000 0.000000 -0.000001 -0.000000 0.000000 -0.000001 1.808116 -3.150462 -12.416800 -36.014706 24.816584 -34.515145 0.404997 -47.203311 0.405380 -13.147543 -0.038081 2.175004 40.109910 -15.297155 -0.360488 5.639929 28.097791 11.338764 0.000001 -0.000001 0.000002 6.882273 2.840049 -61.140486 8.247999 7.640059 -89.897871 -0.000003 -0.000001 -0.000002 -2.345530 4.688889 -62.655224 8.754177 9.897065 -87.051246 -0.000001 -0.000004 -0.000001 -9.042491 10.045645 -60.766185 8.523962 9.508881 -66.892940 -0.000000 0.000001 0.000001 -17.946851 14.755032 -51.485904 8.868406 8.667058 -84.812071 -0.000000 -0.000002 0.000001 0.000001 0.000000 -0.000000 0.099912 6.784908 8.707334 8.453911 -9.716552 53.843826 -22.782605 36.391419 17.920962 -26.906745 10.541914 -17.555698 -2.229123 -5.644469 10.223967 2.393504 -23.029685 -8.550813 0.000001 0.000000 0.000004 -0.031259 0.157244 3.080523 0.067421 -0.504282 7.959861 -0.000001 0.000002 0.000006 0.376500 -6.306662 4.884743 1.639305 -4.634056 27.021847 0.000002 0.000000 -0.000000 1.537630 -11.799183 6.930009 2.077785 -4.286923 30.313326 0.000000 0.000002 0.000001 2.277236 -19.700292 14.604148 3.606966 -2.772462 22.891454 -0.000000 -0.000001 0.000000 -0.000000 0.000000 -0.000004 0.000002 0.000000 0.000001 0.000002 0.000000 0.000001 0.000002 0.000000 0.000001 0.000002 0.000000 0.000001 0.000002 0.000000 0.000001 0.000001 0.000002 -0.000000 0.000002 0.000000 0.000001 0.000002 0.000000 0.000001 0.000001 0.000002 -0.000000 0.000000 0.000003 -0.000000 0.000000 0.000003 -0.000000 -0.000000 -0.000001 -0.000000 
0.854716 74.997856 -0.424228 7.394194 -62.518019 7.661353 -0.000000 -0.000001 -0.000000 -35.887118 12.121436 24.583172 36.591926 -6.424719 1.222809 -5.865723 -2.693799 -16.150551 0.000000 0.000000 0.000000 0.000000 0.000000 0.000000 0.000001 0.000003 -0.000003 -30.288925 -20.188342 -31.900228 34.938938 5.066441 -3.935395 -10.838898 0.420663 21.907325 -0.000000 -0.000000 0.000000 -0.000000 -0.000000 0.000000 -0.000001 -0.000000 -0.000002 14.765190 -0.295619 -4.205273 5.731455 0.497491 -2.601729 5.728708 0.572379 -2.640776 -3.172940 1.885434 3.613000 -19.015358 55.489973 2.614355 -0.000000 0.000000 -0.000001 -0.000000 0.000000 -0.000001 -0.000000 0.000000 -0.000001 1.753349 -3.032289 -12.822388 -32.213850 23.425694 -33.713520 0.377258 -47.042860 0.374133 -16.387652 -0.524158 3.915359 40.109917 -15.297155 -0.360486 5.639928 28.097795 11.338767 0.000001 0.000002 0.000000 6.882278 2.840050 -61.140479 8.248000 7.640057 -89.897878 -0.000001 0.000003 -0.000001 -2.345525 4.688889 -62.655224 8.754172 9.897065 -87.051239 -0.000004 -0.000002 -0.000002 -9.042487 10.045648 -60.766185 8.523960 9.508884 -66.892940 0.000001 0.000003 -0.000000 -17.946853 14.755025 -51.485908 8.868406 8.667054 -84.812071 -0.000003 0.000001 -0.000000 -0.000003 0.000000 0.000000 -1.447337 6.161771 8.633106 9.394079 -10.760406 54.077101 -22.572459 37.039494 17.841263 -25.737440 10.731206 -17.031924 -2.096131 -5.152948 9.668798 2.419548 -22.184251 -8.315893 0.000000 -0.000000 -0.000000 0.010648 -0.298150 5.838091 0.147993 -0.978324 11.261723 -0.000002 -0.000005 0.000004 0.435404 -6.777993 7.554065 1.917835 -5.120885 30.524320 -0.000001 0.000001 0.000002 1.924914 -11.837259 10.016860 2.453695 -4.859693 34.305684 -0.000001 -0.000002 -0.000002 2.496692 -20.238836 18.079687 3.985120 -3.472893 27.434963 -0.000000 -0.000002 -0.000002 -0.000001 -0.000000 0.000001 0.000001 -0.000000 -0.000001 0.000001 -0.000000 -0.000001 0.000001 -0.000000 -0.000001 0.000001 -0.000000 -0.000001 0.000001 -0.000000 -0.000001 -0.000002 0.000000 0.000000 0.000001 -0.000000 -0.000001 0.000001 -0.000000 -0.000001 -0.000002 0.000000 0.000000 -0.000000 -0.000000 0.000002 -0.000000 -0.000000 0.000002 -0.000000 -0.000001 -0.000000 
0.856843 74.992393 -0.421541 6.175085 -63.346972 6.241796 0.000000 -0.000000 -0.000000 -35.445451 12.528009 25.424189 36.942103 -6.699096 1.202778 -6.165007 -2.481119 -16.148171 0.000000 0.000003 -0.000000 0.000000 0.000003 -0.000000 -0.000000 -0.000001 0.000002 -29.700255 -20.196840 -31.443261 34.855217 5.865016 -3.868774 -10.732353 0.237668 21.601284 0.000000 -0.000000 0.000000 0.000000 -0.000000 0.000000 0.000001 -0.000000 -0.000003 14.415015 -0.258041 -4.104378 5.567100 0.412681 -2.385936 5.566057 0.484807 -2.409095 -2.647252 2.365248 3.479150 -17.989687 56.103225 2.243567 -0.000001 -0.000000 0.000000 -0.000001 -0.000000 0.000000 -0.000001 -0.000000 0.000000 1.672543 -2.851053 -13.443081 -28.045991 22.205742 -32.670475 0.347574 -46.527238 0.330385 -19.859490 -1.433918 5.545881 40.109910 -15.297156 -0.360487 5.639930 28.097791 11.338764 -0.000000 -0.000001 0.000003 6.882274 2.840051 -61.140486 8.248000 7.640058 -89.897871 -0.000003 -0.000003 -0.000002 -2.345532 4.688891 -62.655224 8.754171 9.897065 -87.051239 -0.000000 -0.000001 -0.000003 -9.042490 10.045648 -60.766185 8.523960 9.508885 -66.892940 -0.000002 0.000001 -0.000002 -17.946851 14.755027 -51.485908 8.868412 8.667057 -84.812071 0.000002 0.000002 -0.000003 -0.000002 0.000002 0.000000 -3.766293 5.416454 8.450676 10.628859 -12.718378 54.218209 -22.307113 38.229293 17.808332 -24.218147 10.776507 -16.612390 -1.948312 -4.635273 9.073843 2.440910 -21.283344 -8.070730 -0.000000 -0.000001 0.000001 0.075706 -0.754060 8.595585 0.259677 -1.461758 14.669957 -0.000000 -0.000002 0.000001 0.518893 -7.250105 10.225992 2.241022 -5.604555 34.164555 -0.000001 -0.000001 0.000001 2.292889 -11.852330 12.949006 2.872652 -5.404317 38.305142 -0.000001 -0.000002 0.000000 2.696908 -20.720378 21.219514 4.399105 -4.103594 31.748178 -0.000000 -0.000000 0.000000 0.000001 -0.000000 -0.000003 -0.000002 -0.000001 -0.000000 -0.000002 -0.000001 -0.000000 -0.000002 -0.000001 -0.000000 -0.000002 -0.000001 -0.000000 -0.000002 -0.000001 -0.000000 -0.000003 -0.000001 0.000002 -0.000002 -0.000001 -0.000000 -0.000002 -0.000001 -0.000000 -0.000003 -0.000001 0.000002 0.000001 -0.000000 0.000001 0.000001 -0.000000 0.000001 0.000000 -0.000000 -0.000000 
